<svg id="Слой_1" data-name="Слой 1" xmlns="http://www.w3.org/2000/svg" viewBox="0 0 793.81 695.97"><defs><style>.cls-1{fill:#fff;}</style></defs><title>Logo_big</title><path class="cls-1" d="M16.48,528.26v13a4.2,4.2,0,0,1-4.19,4.2H4.2a4.2,4.2,0,0,1-4.2-4.2V444.88a4.2,4.2,0,0,1,4.2-4.2H31.44A41.74,41.74,0,0,1,73.12,483c-.35,22.87-19.44,41-42.32,41H20.67A4.19,4.19,0,0,0,16.48,528.26Zm0-66.9v42a4.2,4.2,0,0,0,4.2,4.2H31.44a25.24,25.24,0,0,0,25.2-24.78c.25-14.11-11.6-25.65-25.71-25.65H20.67A4.21,4.21,0,0,0,16.47,461.36Z"/><path class="cls-1" d="M118.8,541.31a4.2,4.2,0,0,1-4.19,4.2h-8.09a4.2,4.2,0,0,1-4.2-4.2V444.88a4.2,4.2,0,0,1,4.2-4.2h26.56c22.85,0,42,18.12,42.36,41A41.56,41.56,0,0,1,161,513.91a4.26,4.26,0,0,0-.85,5.48l12,19.27a4.2,4.2,0,0,1-3.56,6.42h-9.53a4.23,4.23,0,0,1-3.56-2l-11-17.65a4.16,4.16,0,0,0-4.16-1.93,41.8,41.8,0,0,1-6.57.53H123a4.2,4.2,0,0,0-4.19,4.2Zm0-79.95v42a4.2,4.2,0,0,0,4.19,4.2h10.77A25.24,25.24,0,0,0,159,482.81c.24-14.11-11.6-25.65-25.71-25.65H123A4.2,4.2,0,0,0,118.8,461.36Z"/><path class="cls-1" d="M204.64,493.27c0-29.28,22-53.1,49.13-53.1s49.11,23.82,49.11,53.1-22,53.1-49.11,53.1S204.64,522.55,204.64,493.27Zm16.48,0c0,20.19,14.64,36.63,32.65,36.63s32.64-16.44,32.64-36.63-14.64-36.63-32.64-36.63S221.12,473.08,221.12,493.27Z"/><path class="cls-1" d="M353.05,485.89l-4.46,55.3a4.23,4.23,0,0,1-4.22,3.89h-8a4.23,4.23,0,0,1-4.21-4.57l7.74-95.89a4.23,4.23,0,0,1,4.22-3.89h3.49a4.25,4.25,0,0,1,3.71,2.19l32.15,58.37a1.47,1.47,0,0,0,2.58,0l32.14-58.37a4.25,4.25,0,0,1,3.71-2.19h3.5a4.24,4.24,0,0,1,4.22,3.89l7.74,95.89a4.23,4.23,0,0,1-4.22,4.57h-8a4.23,4.23,0,0,1-4.21-3.89l-4.47-55.3a1.47,1.47,0,0,0-2.75-.59l-25.2,45.76a4.24,4.24,0,0,1-7.41,0l-25.2-45.76A1.48,1.48,0,0,0,353.05,485.89Z"/><path class="cls-1" d="M490.39,445v95.87a4.23,4.23,0,0,1-4.23,4.23h-8a4.23,4.23,0,0,1-4.23-4.23V445a4.23,4.23,0,0,1,4.23-4.23h8A4.23,4.23,0,0,1,490.39,445Z"/><path class="cls-1" d="M546.88,545.08H546c-9.18-4-16-11.59-19.34-21.92a4.18,4.18,0,0,1,3.1-5.35l8-1.76a4.19,4.19,0,0,1,4.85,2.68c2.41,6.65,7.92,13.2,20.24,13.2,5.89,0,17-2.8,17-13.42,0-7.86-6.6-11.57-20.62-17.61-13.23-5.7-29.69-12.81-29.69-31.42,0-11.69,9-30.24,33.15-30.24,15.34,0,26.92,6.55,33.77,19a4.21,4.21,0,0,1-2,5.93l-7.49,3.19a4.17,4.17,0,0,1-5.22-1.68c-4-6.79-10.09-10-19.05-10-16.23,0-16.68,13.63-16.68,13.77,0,7,6.32,10.51,19.74,16.29,13.62,5.88,30.57,13.18,30.57,32.75a28,28,0,0,1-11.1,22.67,36.78,36.78,0,0,1-22.41,7.22,41.89,41.89,0,0,1-15.9-2.95Z"/><path class="cls-1" d="M692.12,533.1v8a4.24,4.24,0,0,1-4.23,4.23H629.54a4.23,4.23,0,0,1-4.23-4.23V445a4.23,4.23,0,0,1,4.23-4.23h58.35a4.24,4.24,0,0,1,4.23,4.24v8a4.24,4.24,0,0,1-4.23,4.23H646a4.23,4.23,0,0,0-4.23,4.23v20.89a4.23,4.23,0,0,0,4.23,4.23h23.83a4.23,4.23,0,0,1,4.23,4.23v8a4.23,4.23,0,0,1-4.23,4.23H646a4.23,4.23,0,0,0-4.23,4.23v17.37a4.23,4.23,0,0,0,4.23,4.23h41.88A4.24,4.24,0,0,1,692.12,533.1Z"/><path class="cls-1" d="M741.06,545.08h-.91c-9.18-4-15.95-11.59-19.34-21.92a4.18,4.18,0,0,1,3.1-5.35l8-1.76a4.18,4.18,0,0,1,4.84,2.68c2.42,6.65,7.93,13.2,20.25,13.2,5.89,0,17-2.8,17-13.42,0-7.86-6.6-11.57-20.62-17.61-13.23-5.7-29.69-12.81-29.69-31.42,0-11.69,9-30.24,33.16-30.24,15.33,0,26.92,6.55,33.77,19a4.21,4.21,0,0,1-2,5.93l-7.5,3.19a4.17,4.17,0,0,1-5.22-1.68c-4-6.79-10.09-10-19-10-16.24,0-16.69,13.63-16.69,13.77,0,7,6.32,10.51,19.75,16.29,13.61,5.88,30.56,13.18,30.56,32.75a28,28,0,0,1-11.09,22.67A36.78,36.78,0,0,1,757,548.41a41.89,41.89,0,0,1-15.9-2.95Z"/><path class="cls-1" d="M0,642.86c0-29.27,22-53.1,49.12-53.1s49.12,23.83,49.12,53.1S76.2,696,49.12,696,0,672.15,0,642.86Zm16.47,0c0,20.2,14.65,36.63,32.65,36.63s32.65-16.43,32.65-36.63-14.65-36.62-32.65-36.62S16.47,622.67,16.47,642.86Z"/><path class="cls-1" d="M154.4,660v30.86a4.23,4.23,0,0,1-4.23,4.23h-8a4.23,4.23,0,0,1-4.23-4.23V594.52a4.23,4.23,0,0,1,4.23-4.23H204a4.23,4.23,0,0,1,4.23,4.23v8a4.23,4.23,0,0,1-4.23,4.23H158.63A4.23,4.23,0,0,0,154.4,611v24.09a4.23,4.23,0,0,0,4.23,4.23h25.91a4.23,4.23,0,0,1,4.23,4.23v8a4.24,4.24,0,0,1-4.23,4.23H158.63A4.23,4.23,0,0,0,154.4,660Z"/><path class="cls-1" d="M281.09,642.57c0-29.21,22.77-53,50.75-53a49.59,49.59,0,0,1,35.87,15.49,4.22,4.22,0,0,1-.44,6.19L361,616.33a4.28,4.28,0,0,1-5.69-.36,33.11,33.11,0,0,0-23.46-9.91c-18.9,0-34.28,16.38-34.28,36.51s15.38,36.51,34.28,36.51A32.88,32.88,0,0,0,354,670.45a4.26,4.26,0,0,0,1.4-3.15v-6.07a4.23,4.23,0,0,0-4.22-4.23H334.3a4.21,4.21,0,0,1-4.22-4.22v-8a4.23,4.23,0,0,1,4.22-4.23h33.31a4.22,4.22,0,0,1,4.22,4.23v45.47a4.21,4.21,0,0,1-4.22,4.22h-8a4.22,4.22,0,0,1-4.22-4.22v-.69a48.82,48.82,0,0,1-23.52,6C303.86,695.55,281.09,671.78,281.09,642.57Z"/><path class="cls-1" d="M410.53,590.33h8a4.24,4.24,0,0,1,4.23,4.23v79.63a4.22,4.22,0,0,0,4.23,4.22h39.27a4.24,4.24,0,0,1,4.23,4.23v8a4.23,4.23,0,0,1-4.23,4.22H410.52a4.22,4.22,0,0,1-4.22-4.22v-96.1A4.23,4.23,0,0,1,410.53,590.33Z"/><path class="cls-1" d="M497.4,642.86c0-29.27,22-53.1,49.12-53.1s49.11,23.83,49.11,53.1S573.6,696,546.52,696,497.4,672.15,497.4,642.86Zm16.47,0c0,20.2,14.64,36.63,32.65,36.63s32.64-16.43,32.64-36.63-14.64-36.62-32.64-36.62S513.87,622.67,513.87,642.86Z"/><path class="cls-1" d="M639.09,690.91a4.2,4.2,0,0,1-4.19,4.19h-8.09a4.2,4.2,0,0,1-4.2-4.19V594.47a4.2,4.2,0,0,1,4.2-4.19h26.56c22.85,0,42,18.12,42.36,41a41.56,41.56,0,0,1-14.47,32.26,4.25,4.25,0,0,0-.85,5.47l12,19.28a4.2,4.2,0,0,1-3.56,6.42h-9.53a4.21,4.21,0,0,1-3.56-2l-11-17.64a4.16,4.16,0,0,0-4.16-1.93,41.8,41.8,0,0,1-6.57.53H643.28a4.19,4.19,0,0,0-4.19,4.19Zm0-80v42a4.19,4.19,0,0,0,4.19,4.19h10.77a25.24,25.24,0,0,0,25.21-24.78c.24-14.1-11.61-25.64-25.71-25.64H643.28A4.19,4.19,0,0,0,639.09,611Z"/><path class="cls-1" d="M755.87,629.66l20.81-37.18a4.22,4.22,0,0,1,3.66-2.15h9.27a4.2,4.2,0,0,1,3.66,6.24l-29.06,51.92a11.44,11.44,0,0,0-1.46,5.6v36.82a4.2,4.2,0,0,1-4.19,4.19h-8.09a4.2,4.2,0,0,1-4.2-4.19V654.09a11.48,11.48,0,0,0-1.46-5.61l-29.06-51.91a4.2,4.2,0,0,1,3.66-6.24h9.27a4.18,4.18,0,0,1,3.66,2.15l20.81,37.18A1.56,1.56,0,0,0,755.87,629.66Z"/><path class="cls-1" d="M578.91,140.21l-143.29-5.69L385.93,0l-49.7,134.52-143.29,5.69L305.52,229l-38.87,138,119.28-79.62L505.2,367.08,466.33,229ZM458.23,219.38l-62.06-28L434,147.06l110.35,4.39Zm-34.25-80-38.05,44.57-38.06-44.58,38.06-103ZM227.53,151.45l110.35-4.39,37.81,44.29-62.07,28ZM318,231.24l61.64-27.84v73.11L288,337.66ZM483.82,337.66l-91.59-61.15V203.4l61.63,27.84Z"/><path class="cls-1" d="M450.64,117.09l.33-53,87-48-34.9,93Zm12.89-45.54-.2,30.86,30.52-4.65,20.32-54.14Z"/><path class="cls-1" d="M622,292.06l-99.19-5.24-23.42-47.56,50.65-15.67Zm-91.15-17.43,57.75,3.05-41.89-39.87-29.49,9.13Z"/><path class="cls-1" d="M385.2,448.36l-33.69-93.45,34.74-40.05,34.1,40.59Zm-19.33-90.77L385.49,412,406,357.91,386.1,334.28Z"/><path class="cls-1" d="M152,297l71-69.44,50.86,15L251.1,290.41Zm74.56-55.26-41.36,40.42,57.71-3.82,13.26-27.88Z"/><path class="cls-1" d="M320.8,117.45l-52.27-8.87L235.19,15l86.16,49.42ZM277.92,97.39l30.43,5.16.33-30.86L258.51,42.92Z"/></svg>