<?xml version="1.0" encoding="utf-8"?>
<!-- Generator: Adobe Illustrator 23.0.1, SVG Export Plug-In . SVG Version: 6.00 Build 0)  -->
<svg version="1.1" id="Слой_1" xmlns="http://www.w3.org/2000/svg" xmlns:xlink="http://www.w3.org/1999/xlink" x="0px" y="0px"
	 viewBox="0 0 2030.42 358.8" style="enable-background:new 0 0 2030.42 358.8;" xml:space="preserve">
<style type="text/css">
	<!-- .st0{fill:#FFFFFF;} -->
</style>
<g>
	<g>
		<g>
			<g>
				<path class="st0" d="M16.48,208.53v13.06c0,2.31-1.88,4.19-4.19,4.19H4.2c-2.32,0-4.2-1.88-4.2-4.19v-96.43
					c0-2.32,1.88-4.2,4.2-4.2h27.24c23.2,0,42.04,19.05,41.68,42.34c-0.35,22.87-19.44,41.04-42.31,41.04H20.67
					C18.35,204.33,16.48,206.21,16.48,208.53z M16.47,141.63v42.04c0,2.32,1.88,4.2,4.2,4.2h10.76c13.75,0,24.97-11.08,25.21-24.78
					c0.24-14.1-11.6-25.65-25.71-25.65H20.67C18.35,137.43,16.48,139.31,16.47,141.63z"/>
				<path class="st0" d="M118.8,221.59c0,2.31-1.88,4.19-4.19,4.19h-8.09c-2.32,0-4.2-1.88-4.2-4.19v-96.44c0-2.32,1.88-4.2,4.2-4.2
					h26.56c22.86,0,41.97,18.12,42.36,40.97c0.22,12.89-5.44,24.47-14.47,32.26c-1.59,1.37-1.96,3.69-0.85,5.47l12.03,19.28
					c1.74,2.79-0.26,6.42-3.56,6.42h-9.53c-1.44,0-2.79-0.75-3.56-1.97l-11.01-17.64c-0.88-1.41-2.52-2.19-4.16-1.93
					c-2.14,0.34-4.33,0.53-6.57,0.53h-10.76c-2.31,0-4.19,1.88-4.19,4.2V221.59z M118.8,141.63v42.04c0,2.32,1.88,4.2,4.19,4.2
					h10.76c13.76,0,24.98-11.08,25.21-24.78c0.24-14.1-11.61-25.65-25.71-25.65h-10.26C120.68,137.43,118.8,139.31,118.8,141.63z"/>
				<path class="st0" d="M204.64,173.54c0-29.28,22.04-53.1,49.12-53.1s49.12,23.82,49.12,53.1c0,29.28-22.03,53.1-49.12,53.1
					S204.64,202.82,204.64,173.54z M221.12,173.54c0,20.19,14.65,36.62,32.65,36.62c18,0,32.65-16.43,32.65-36.62
					c0-20.2-14.65-36.63-32.65-36.63S221.12,153.35,221.12,173.54z"/>
				<path class="st0" d="M353.05,166.16l-4.46,55.3c-0.18,2.2-2.01,3.89-4.22,3.89h-8.04c-2.47,0-4.41-2.1-4.21-4.57l7.75-95.89
					c0.18-2.2,2.01-3.89,4.21-3.89h3.5c1.54,0,2.96,0.84,3.7,2.19l32.15,58.37c0.56,1.02,2.02,1.02,2.58,0l32.15-58.37
					c0.75-1.35,2.16-2.19,3.7-2.19h3.5c2.2,0,4.04,1.69,4.22,3.89l7.74,95.89c0.2,2.47-1.74,4.57-4.21,4.57h-8.04
					c-2.2,0-4.04-1.69-4.22-3.89l-4.46-55.3c-0.11-1.46-2.05-1.87-2.76-0.59l-25.2,45.76c-1.6,2.92-5.8,2.92-7.41,0l-25.2-45.76
					C355.11,164.29,353.18,164.71,353.05,166.16z"/>
				<path class="st0" d="M490.39,125.24v95.87c0,2.33-1.89,4.23-4.23,4.23h-8.01c-2.33,0-4.23-1.89-4.23-4.23v-95.87
					c0-2.33,1.89-4.23,4.23-4.23h8.01C488.5,121.01,490.39,122.9,490.39,125.24z"/>
				<path class="st0" d="M546.88,225.35h-0.91c-9.18-4.03-15.95-11.59-19.34-21.92c-0.77-2.33,0.7-4.82,3.1-5.35l7.96-1.76
					c2.06-0.46,4.12,0.7,4.84,2.68c2.42,6.65,7.93,13.21,20.25,13.21c5.89,0,17.03-2.81,17.03-13.42c0-7.86-6.6-11.57-20.62-17.62
					c-13.23-5.7-29.69-12.8-29.69-31.42c0-11.69,9-30.24,33.15-30.24c15.33,0,26.92,6.55,33.77,19.01c1.21,2.2,0.3,4.95-2.01,5.93
					l-7.49,3.18c-1.92,0.81-4.17,0.12-5.22-1.68c-3.96-6.79-10.09-9.98-19.05-9.98c-16.23,0-16.68,13.63-16.68,13.77
					c0,7.01,6.32,10.51,19.74,16.29c13.62,5.87,30.57,13.18,30.57,32.74c0,9.12-3.94,17.16-11.1,22.67
					c-6.05,4.66-14.01,7.22-22.41,7.22c-5.83,0-11.17-1.02-15.9-2.95V225.35z"/>
				<path class="st0" d="M692.12,213.38v8.01c0,2.33-1.89,4.23-4.23,4.23h-58.35c-2.33,0-4.23-1.89-4.23-4.23v-96.14
					c0-2.33,1.9-4.23,4.23-4.23h58.35c2.34,0,4.23,1.9,4.23,4.23v8.01c0,2.33-1.89,4.23-4.23,4.23h-41.88
					c-2.33,0-4.23,1.89-4.23,4.23v20.89c0,2.33,1.89,4.23,4.23,4.23h23.83c2.33,0,4.23,1.89,4.23,4.23v8.01
					c0,2.33-1.89,4.23-4.23,4.23h-23.83c-2.33,0-4.23,1.89-4.23,4.23v17.37c0,2.33,1.89,4.23,4.23,4.23h41.88
					C690.22,209.14,692.12,211.04,692.12,213.38z"/>
				<path class="st0" d="M740.06,225.35h-0.91c-9.18-4.03-15.95-11.59-19.34-21.92c-0.77-2.33,0.7-4.82,3.1-5.35l7.96-1.76
					c2.06-0.46,4.12,0.7,4.84,2.68c2.42,6.65,7.93,13.21,20.25,13.21c5.89,0,17.03-2.81,17.03-13.42c0-7.86-6.6-11.57-20.62-17.62
					c-13.23-5.7-29.69-12.8-29.69-31.42c0-11.69,9-30.24,33.15-30.24c15.33,0,26.92,6.55,33.77,19.01c1.21,2.2,0.3,4.95-2.01,5.93
					l-7.49,3.18c-1.92,0.81-4.17,0.12-5.22-1.68c-3.96-6.79-10.09-9.98-19.05-9.98c-16.23,0-16.68,13.63-16.68,13.77
					c0,7.01,6.32,10.51,19.74,16.29c13.62,5.87,30.57,13.18,30.57,32.74c0,9.12-3.94,17.16-11.1,22.67
					c-6.05,4.66-14.01,7.22-22.41,7.22c-5.83,0-11.17-1.02-15.9-2.95V225.35z"/>
				<path class="st0" d="M1236.61,175.26c0-29.28,22.04-53.1,49.12-53.1c27.08,0,49.12,23.82,49.12,53.1
					c0,29.28-22.03,53.1-49.12,53.1C1258.65,228.36,1236.61,204.54,1236.61,175.26z M1253.08,175.26c0,20.2,14.65,36.63,32.65,36.63
					c18,0,32.65-16.43,32.65-36.63c0-20.19-14.65-36.62-32.65-36.62C1267.73,138.64,1253.08,155.07,1253.08,175.26z"/>
				<path class="st0" d="M1391.01,192.41v30.86c0,2.33-1.89,4.23-4.23,4.23h-8.01c-2.33,0-4.23-1.89-4.23-4.23v-96.36
					c0-2.33,1.9-4.23,4.23-4.23h61.86c2.33,0,4.23,1.89,4.23,4.23v8.01c0,2.33-1.89,4.23-4.23,4.23h-45.39
					c-2.33,0-4.23,1.89-4.23,4.23v24.09c0,2.33,1.89,4.23,4.23,4.23h25.91c2.33,0,4.23,1.9,4.23,4.23v8.02
					c0,2.33-1.89,4.23-4.23,4.23h-25.91C1392.9,188.18,1391.01,190.07,1391.01,192.41z"/>
				<path class="st0" d="M1517.7,174.97c0-29.21,22.77-52.98,50.75-52.98c13.54,0,26.38,5.59,35.87,15.49
					c1.7,1.78,1.49,4.65-0.43,6.19l-6.28,5.06c-1.7,1.37-4.14,1.19-5.69-0.36c-6.33-6.34-14.69-9.9-23.47-9.9
					c-18.9,0-34.28,16.38-34.28,36.51c0,20.13,15.38,36.51,34.28,36.51c8.16,0,15.94-3.05,22.12-8.63c0.89-0.8,1.4-1.95,1.4-3.15
					v-6.07c0-2.33-1.89-4.23-4.22-4.23h-16.84c-2.33,0-4.23-1.89-4.23-4.22v-8.02c0-2.33,1.89-4.23,4.23-4.23h33.31
					c2.33,0,4.22,1.89,4.22,4.23v45.47c0,2.33-1.89,4.22-4.22,4.22h-8.03c-2.33,0-4.22-1.89-4.22-4.22v-0.69
					c-7.18,3.93-15.21,6.01-23.52,6.01C1540.47,227.95,1517.7,204.18,1517.7,174.97z"/>
				<path class="st0" d="M1647.14,122.73h8.01c2.33,0,4.23,1.89,4.23,4.23v79.62c0,2.33,1.89,4.23,4.23,4.23h39.27
					c2.33,0,4.23,1.9,4.23,4.23v8.01c0,2.33-1.89,4.23-4.23,4.23h-55.74c-2.33,0-4.23-1.89-4.23-4.23v-96.09
					C1642.9,124.62,1644.8,122.73,1647.14,122.73z"/>
				<path class="st0" d="M1734.01,175.26c0-29.28,22.04-53.1,49.12-53.1c27.08,0,49.12,23.82,49.12,53.1
					c0,29.28-22.03,53.1-49.12,53.1C1756.04,228.36,1734.01,204.54,1734.01,175.26z M1750.48,175.26c0,20.2,14.65,36.63,32.65,36.63
					c18,0,32.65-16.43,32.65-36.63c0-20.19-14.65-36.62-32.65-36.62C1765.13,138.64,1750.48,155.07,1750.48,175.26z"/>
				<path class="st0" d="M1875.7,223.31c0,2.31-1.88,4.19-4.19,4.19h-8.09c-2.32,0-4.2-1.88-4.2-4.19v-96.44
					c0-2.32,1.88-4.2,4.2-4.2h26.56c22.86,0,41.97,18.12,42.36,40.97c0.22,12.89-5.44,24.47-14.47,32.26
					c-1.59,1.37-1.96,3.69-0.85,5.47l12.03,19.28c1.74,2.79-0.26,6.42-3.56,6.42h-9.53c-1.44,0-2.79-0.75-3.56-1.97l-11.01-17.64
					c-0.88-1.41-2.52-2.19-4.16-1.93c-2.14,0.34-4.33,0.53-6.57,0.53h-10.76c-2.31,0-4.19,1.88-4.19,4.2V223.31z M1875.7,143.35
					v42.04c0,2.32,1.88,4.2,4.19,4.2h10.76c13.76,0,24.98-11.08,25.21-24.78c0.24-14.1-11.61-25.65-25.71-25.65h-10.26
					C1877.58,139.15,1875.7,141.03,1875.7,143.35z"/>
				<path class="st0" d="M1992.48,162.06l20.81-37.18c0.74-1.33,2.14-2.15,3.66-2.15h9.27c3.2,0,5.22,3.45,3.66,6.24l-29.06,51.91
					c-0.96,1.71-1.46,3.64-1.46,5.6v36.81c0,2.31-1.87,4.19-4.19,4.19h-8.09c-2.32,0-4.19-1.88-4.19-4.19v-36.82
					c0-1.96-0.5-3.89-1.46-5.6l-29.06-51.91c-1.56-2.79,0.46-6.24,3.66-6.24h9.27c1.52,0,2.92,0.82,3.66,2.15l20.81,37.18
					C1990.36,163.11,1991.88,163.11,1992.48,162.06z"/>
			</g>
		</g>
		<g>
			<g>
				<path class="st0" d="M1167.62,112.2l-114.67-4.56L1013.19,0l-39.77,107.65l-114.67,4.56l90.09,71.09l-31.1,110.46l95.45-63.71
					l95.45,63.71l-31.1-110.46L1167.62,112.2z M1071.05,175.56l-49.67-22.43l30.25-35.44l88.31,3.51L1071.05,175.56z
					 M1043.63,111.53l-30.45,35.67l-30.45-35.67l30.45-82.42L1043.63,111.53z M886.42,121.2l88.31-3.51l30.26,35.44l-49.67,22.43
					L886.42,121.2z M958.82,185.05l49.32-22.28v58.51l-73.3,48.93L958.82,185.05z M1091.53,270.21l-73.3-48.93v-58.51l49.32,22.28
					L1091.53,270.21z"/>
			</g>
			<g>
				<path class="st0" d="M1064.97,93.71l0.27-42.42l69.61-38.39l-27.93,74.42L1064.97,93.71z M1075.28,57.26l-0.15,24.7l24.42-3.72
					l16.26-43.33L1075.28,57.26z"/>
			</g>
			<g>
				<path class="st0" d="M1202.12,233.72l-79.38-4.19L1104,191.47l40.53-12.54L1202.12,233.72z M1129.18,219.77l46.22,2.44
					l-33.53-31.9l-23.6,7.3L1129.18,219.77z"/>
			</g>
			<g>
				<path class="st0" d="M1012.6,358.8l-26.96-74.78l27.8-32.05l27.29,32.48L1012.6,358.8z M997.14,286.16l15.7,43.54l16.38-43.28
					l-15.89-18.91L997.14,286.16z"/>
			</g>
			<g>
				<path class="st0" d="M825.97,237.67l56.84-55.56l40.7,11.99l-18.23,38.31L825.97,237.67z M885.64,193.45l-33.09,32.35
					l46.18-3.06l10.61-22.31L885.64,193.45z"/>
			</g>
			<g>
				<path class="st0" d="M961.07,93.99l-41.83-7.09l-26.68-74.88l68.95,39.55L961.07,93.99z M926.75,77.94l24.35,4.13l0.26-24.7
					l-40.15-23.03L926.75,77.94z"/>
			</g>
		</g>
	</g>
</g>
</svg>
